<?xml version="1.0" encoding="UTF-8"?>
<!DOCTYPE svg PUBLIC "-//W3C//DTD SVG 1.1//EN" "http://www.w3.org/Graphics/SVG/1.1/DTD/svg11.dtd">
<!-- Creator: CorelDRAW X7 -->
<svg xmlns="http://www.w3.org/2000/svg" xml:space="preserve" width="26.1793in" height="7.29531in" version="1.1" style="shape-rendering:geometricPrecision; text-rendering:geometricPrecision; image-rendering:optimizeQuality; fill-rule:evenodd; clip-rule:evenodd"
viewBox="0 0 27307 7610"
 xmlns:xlink="http://www.w3.org/1999/xlink">
 <defs>
  <style type="text/css">
   <![CDATA[
    .fil0 {fill:#112B3C}
    .fil3 {fill:#112B3C}
    .fil2 {fill:#F66B0E}
    .fil1 {fill:#F66B0E}
   ]]>
  </style>
 </defs>
 <g id="Layer_x0020_1">
  <metadata id="CorelCorpID_0Corel-Layer"/>
  <path class="fil0" d="M6297 1078c1039,985 597,3137 -987,4806 -1584,1669 -3710,2223 -4748,1238 -683,-649 -726,-1802 -224,-2991 -271,850 -187,1643 308,2113 850,807 2591,353 3887,-1013 1297,-1367 1659,-3129 808,-3935 -571,-542 -1543,-516 -2513,-26 1310,-805 2693,-929 3469,-192z"/>
  <path class="fil1" d="M5564 607c-957,-450 -3122,551 -3824,1291 -703,740 -425,489 -596,744 212,-416 127,-433 866,-1212 740,-779 2407,-1722 3340,-1344 220,127 257,360 214,521z"/>
  <path class="fil1" d="M4495 5175l1 -2037 1137 0c-157,669 -545,1394 -1138,2037z"/>
  <path class="fil0" d="M6916 3057c172,10 344,48 517,112 591,298 888,786 888,1461l0 38c0,315 -71,599 -216,850 -310,474 -717,711 -1218,711l-166 0c-269,0 -525,-102 -768,-304l0 1403 -1269 0 0 -784c250,-196 493,-416 725,-660 225,-238 428,-485 606,-738 27,89 160,144 401,169l76 0c62,0 138,-12 229,-38 170,-112 254,-324 254,-635l0 -101c0,-87 -21,-184 -64,-293 -52,-122 -141,-203 -267,-241 132,-323 223,-643 272,-950z"/>
  <path class="fil2" d="M1871 4534c0,192 22,342 64,451 76,177 229,266 457,266 45,-9 87,-13 127,-13 271,-53 406,-296 406,-730 -8,-320 -38,-502 -89,-546 0,-108 -135,-176 -406,-203l-76 0c-62,0 -137,12 -228,38 -170,112 -255,324 -255,635l0 102zm153 1643c-204,0 -407,-38 -610,-113 -593,-299 -889,-839 -889,-1619l0 -39c0,-315 72,-598 216,-851 311,-473 717,-710 1219,-710l166 0c268,0 524,101 768,304l0 -1498 1269 0 -4 4444 -1272 0 0 -222 -13 0c-243,203 -526,304 -850,304z"/>
  <path class="fil3" d="M9446 3579c0,114 13,205 39,270 45,106 137,159 274,159 26,-5 51,-8 75,-8 163,-31 244,-177 244,-437 -5,-191 -23,-301 -53,-327 0,-64 -81,-105 -244,-121l-45 0c-37,0 -83,7 -137,22 -102,67 -153,194 -153,381l0 61zm92 984c-122,0 -244,-23 -366,-68 -355,-179 -532,-502 -532,-970l0 -23c0,-189 43,-358 129,-510 187,-283 430,-425 731,-425l99 0c161,0 314,61 460,182l0 -898 760 0 -2 2663 -762 0 0 -133 -8 0c-146,121 -315,182 -509,182zm2190 -984c0,114 13,205 39,270 45,106 137,159 274,159 26,-5 51,-8 76,-8 162,-31 243,-177 243,-437 -5,-191 -23,-301 -53,-327 0,-64 -81,-105 -244,-121l-45 0c-37,0 -83,7 -137,22 -102,67 -153,194 -153,381l0 61zm92 984c-122,0 -243,-23 -366,-68 -355,-179 -532,-502 -532,-970l0 -23c0,-189 43,-358 129,-510 187,-283 430,-425 731,-425l99 0c161,0 314,61 460,182l0 -174 760 0 -2 1939 -762 0 0 -133 -8 0c-146,121 -315,182 -509,182zm2268 -2076l90 0c273,0 552,76 835,228 0,13 -84,165 -250,457l-260 -73c-125,-35 -229,-53 -314,-53l-47 0c-78,0 -124,33 -137,99 0,42 101,84 304,129 289,79 480,161 574,247 118,103 177,240 177,411 0,353 -208,574 -626,662 -92,10 -167,15 -224,15l-57 0c-359,0 -688,-99 -987,-297l0 -7c180,-283 274,-425 282,-427l7 0c214,115 429,172 646,172l48 0c113,0 169,-26 169,-76 0,-71 -134,-132 -401,-183 -294,-78 -486,-188 -574,-331 -54,-94 -80,-192 -80,-296 0,-344 209,-564 625,-662 80,-10 147,-15 200,-15zm1818 1092c0,114 13,205 38,270 45,106 137,159 274,159 26,-5 52,-8 76,-8 162,-31 243,-177 243,-437 -5,-191 -23,-301 -53,-327 0,-64 -81,-105 -244,-121l-45 0c-37,0 -82,7 -137,22 -102,67 -152,194 -152,381l0 61zm91 984c-122,0 -243,-23 -365,-68 -355,-179 -533,-502 -533,-970l0 -23c0,-189 43,-358 130,-510 186,-283 429,-425 730,-425l99 0c161,0 314,61 460,182l0 -174 760 0 -2 1939 -762 0 0 -133 -7 0c-146,121 -316,182 -510,182zm2761 -2038c122,0 244,23 366,68 354,179 532,471 532,875l0 23c0,189 -43,359 -129,509 -187,284 -430,426 -731,426l-99 0c-161,0 -314,-61 -460,-182l0 840 -760 0 0 -901 1 -1608 763 0 0 133 8 0c146,-122 315,-183 509,-183zm92 890c0,-52 -13,-110 -39,-175 -45,-107 -137,-160 -274,-160 -26,5 -51,8 -75,8 -163,30 -244,144 -244,342 5,191 23,300 53,327 0,65 81,105 244,121l45 0c37,0 83,-7 137,-22 102,-67 153,-194 153,-381l0 -60zm909 -840l715 0 0 1000c0,189 66,305 197,350 28,5 51,7 69,7l46 0c134,0 222,-79 266,-236 5,-19 7,-41 7,-68l0 -1053 723 0 0 1951 -723 0 0 -267c-172,208 -367,312 -585,312l-54 0c-313,0 -523,-157 -631,-472 -20,-95 -30,-181 -30,-258l0 -1266zm2304 0l0 -704 761 0 0 704 568 0 0 536 -568 0 0 521c0,87 28,169 83,246 44,61 206,99 485,113l0 523 -307 0c-178,0 -355,-31 -533,-92 -326,-158 -489,-472 -489,-943l0 -368 -191 0 0 -536 191 0zm2813 -31l221 45 0 700 -115 0c-294,0 -486,81 -578,243 -56,80 -84,222 -84,427l0 555 -737 0 0 -1939 722 0 0 395 115 -190c121,-157 273,-236 456,-236zm1059 1035c0,114 12,205 38,270 45,106 137,159 274,159 26,-5 52,-8 76,-8 162,-31 243,-177 243,-437 -5,-191 -23,-301 -53,-327 0,-64 -81,-105 -244,-121l-45 0c-37,0 -82,7 -137,22 -102,67 -152,194 -152,381l0 61zm91 984c-122,0 -243,-23 -365,-68 -355,-179 -533,-502 -533,-970l0 -23c0,-189 43,-358 130,-510 186,-283 429,-425 730,-425l99 0c161,0 314,61 460,182l0 -174 760 0 -2 1939 -762 0 0 -133 -7 0c-147,121 -316,182 -510,182z"/>
  <path class="fil3" d="M9853 7496l0 -1012c0,-189 -66,-305 -198,-350 -28,-4 -50,-7 -68,-7l-46 0c-71,0 -128,79 -171,236 -5,18 -7,41 -7,68l0 1065 -723 0 0 -1939 723 0 0 243c109,-208 272,-312 490,-312l54 0c236,0 434,113 593,339 53,-92 153,-183 300,-274 76,-44 164,-65 262,-65l54 0c313,0 523,157 631,472 20,94 30,181 30,258l0 1278 -715 0 0 -1012c0,-189 -66,-305 -197,-350 -28,-4 -51,-7 -69,-7l-46 0c-70,0 -128,79 -170,236 -6,18 -8,41 -8,68l0 1065 -719 0zm2763 -1198l700 0 0 -5c0,-54 -38,-111 -114,-174 -70,-35 -141,-53 -213,-53 -207,0 -331,77 -373,232zm349 -806c535,0 874,276 1020,828 25,106 38,236 38,391l0 36 -1400 0 0 7c43,106 103,180 183,219 75,39 146,59 213,59l26 0c89,0 174,-51 255,-152l685 0 0 7c-252,444 -572,666 -959,666 -359,0 -636,-107 -828,-321 -193,-213 -289,-446 -289,-698 0,-293 101,-539 304,-737 203,-198 454,-300 752,-305zm1937 1069c0,115 13,205 38,270 45,106 137,159 274,159 26,-5 52,-7 76,-7 162,-32 243,-178 243,-438 -5,-191 -23,-300 -53,-327 0,-64 -81,-105 -244,-121l-45 0c-37,0 -82,7 -137,22 -102,67 -152,194 -152,381l0 61zm91 984c-122,0 -243,-22 -365,-68 -355,-179 -533,-502 -533,-970l0 -23c0,-189 43,-358 130,-509 186,-284 429,-426 730,-426l99 0c161,0 314,61 460,182l0 -897 760 0 -2 2662 -762 0 0 -133 -7 0c-146,121 -316,182 -510,182zm2240 -1988l0 1939 -760 0 0 -1939 760 0zm-760 -191l0 -532 760 0 0 532 -760 0zm1661 1195c0,115 13,205 39,270 45,106 137,159 274,159 26,-5 51,-7 76,-7 162,-32 243,-178 243,-438 -5,-191 -23,-300 -53,-327 0,-64 -81,-105 -244,-121l-45 0c-37,0 -83,7 -137,22 -102,67 -153,194 -153,381l0 61zm92 984c-122,0 -243,-22 -366,-68 -355,-179 -532,-502 -532,-970l0 -23c0,-189 43,-358 129,-509 187,-284 430,-426 731,-426l99 0c161,0 314,61 460,182l0 -174 760 0 -2 1939 -762 0 0 -133 -8 0c-146,121 -315,182 -509,182z"/>
 </g>
</svg>
