<svg xmlns="http://www.w3.org/2000/svg" xmlns:xlink="http://www.w3.org/1999/xlink" aria-hidden="true" role="img" class="iconify iconify--mdi" width="32" height="32" preserveAspectRatio="xMidYMid meet" viewBox="0 0 24 24"><path fill="#888888" d="M4 6v10h5v-4a2 2 0 0 1 2-2h5a2 2 0 0 1 2 2v4h2V6H4M0 20v-2h4a2 2 0 0 1-2-2V6a2 2 0 0 1 2-2h16a2 2 0 0 1 2 2v10a2 2 0 0 1-2 2h4v2h-6a2 2 0 0 1-2 2h-5a2 2 0 0 1-2-2H0m11.5 0a.5.5 0 0 0-.5.5a.5.5 0 0 0 .5.5a.5.5 0 0 0 .5-.5a.5.5 0 0 0-.5-.5m4 0a.5.5 0 0 0-.5.5a.5.5 0 0 0 .5.5a.5.5 0 0 0 .5-.5a.5.5 0 0 0-.5-.5M13 20v1h1v-1h-1m-2-8v7h5v-7h-5Z"></path></svg>